<svg width="74" height="81" viewBox="0 0 74 81" fill="none" xmlns="http://www.w3.org/2000/svg">
<path d="M37.1678 52.7032C43.8684 52.7032 49.3003 47.2712 49.3003 40.5706C49.3003 33.8699 43.8684 28.438 37.1678 28.438C30.4671 28.438 25.0352 33.8699 25.0352 40.5706C25.0352 47.2712 30.4671 52.7032 37.1678 52.7032Z" stroke="#975A03" stroke-width="1.5" stroke-linecap="round" stroke-linejoin="round"/>
<path d="M30.9915 30.1237C27.9963 24.4783 25.0352 17.7636 25.0352 13.2708C25.0352 10.053 26.3134 6.96704 28.5887 4.69174C30.864 2.41644 33.95 1.13818 37.1678 1.13818C40.3855 1.13818 43.4715 2.41644 45.7468 4.69174C48.0221 6.96704 49.3003 10.053 49.3003 13.2708C49.3003 17.7636 46.3392 24.4783 43.344 30.1237" stroke="#975A03" stroke-width="1.5" stroke-linecap="round" stroke-linejoin="round"/>
<path d="M25.0427 40.6932C18.6541 40.4657 11.3594 39.6733 7.46938 37.425C6.06889 36.6392 4.83832 35.5832 3.84903 34.3182C2.85975 33.0533 2.13143 31.6045 1.7063 30.0559C1.28118 28.5073 1.16771 26.8898 1.37247 25.297C1.57724 23.7042 2.09617 22.168 2.89916 20.7773C3.70216 19.3866 4.77325 18.1691 6.05033 17.1955C7.32741 16.2219 8.78506 15.5115 10.3388 15.1055C11.8925 14.6996 13.5113 14.6061 15.1014 14.8305C16.6915 15.0549 18.2213 15.5927 19.602 16.4128C23.492 18.6573 27.8294 24.5796 31.2189 29.9975" stroke="#975A03" stroke-width="1.5" stroke-linecap="round" stroke-linejoin="round"/>
<path d="M31.2189 51.139C27.8294 56.557 23.492 62.4792 19.602 64.7237C18.2213 65.5438 16.6915 66.0817 15.1014 66.3061C13.5113 66.5305 11.8925 66.437 10.3388 66.031C8.78506 65.625 7.32741 64.9146 6.05033 63.941C4.77325 62.9674 3.70216 61.75 2.89916 60.3593C2.09617 58.9686 1.57724 57.4323 1.37247 55.8395C1.16771 54.2468 1.28118 52.6292 1.7063 51.0806C2.13143 49.5321 2.85975 48.0833 3.84903 46.8183C4.83832 45.5533 6.06889 44.4974 7.46938 43.7116C11.3594 41.4633 18.6541 40.6784 25.0427 40.4434" stroke="#975A03" stroke-width="1.5" stroke-linecap="round" stroke-linejoin="round"/>
<path d="M43.344 51.0146C46.3392 56.6601 49.3003 63.3747 49.3003 67.8676C49.3003 71.0853 48.0221 74.1713 45.7468 76.4466C43.4715 78.7219 40.3855 80.0002 37.1678 80.0002C33.95 80.0002 30.864 78.7219 28.5887 76.4466C26.3134 74.1713 25.0352 71.0853 25.0352 67.8676C25.0352 63.3747 27.9963 56.6601 30.9915 51.0146" stroke="#975A03" stroke-width="1.5" stroke-linecap="round" stroke-linejoin="round"/>
<path d="M49.3052 40.4434C55.6937 40.6708 62.9884 41.4633 66.8785 43.7116C68.279 44.4974 69.5095 45.5533 70.4988 46.8183C71.4881 48.0833 72.2164 49.5321 72.6415 51.0806C73.0667 52.6292 73.1801 54.2468 72.9754 55.8395C72.7706 57.4323 72.2517 58.9686 71.4487 60.3593C70.6457 61.75 69.5746 62.9674 68.2975 63.941C67.0204 64.9146 65.5628 65.625 64.0091 66.031C62.4554 66.437 60.8365 66.5305 59.2464 66.3061C57.6563 66.0817 56.1265 65.5438 54.7459 64.7237C50.8559 62.4792 46.5185 56.557 43.1289 51.139" stroke="#975A03" stroke-width="1.5" stroke-linecap="round" stroke-linejoin="round"/>
<path d="M43.1289 29.9975C46.5185 24.5796 50.8559 18.6573 54.7459 16.4128C56.1265 15.5927 57.6563 15.0549 59.2464 14.8305C60.8365 14.6061 62.4554 14.6996 64.0091 15.1055C65.5628 15.5115 67.0204 16.2219 68.2975 17.1955C69.5746 18.1691 70.6457 19.3866 71.4487 20.7773C72.2517 22.168 72.7706 23.7042 72.9754 25.297C73.1801 26.8898 73.0667 28.5073 72.6415 30.0559C72.2164 31.6045 71.4881 33.0533 70.4988 34.3182C69.5095 35.5832 68.279 36.6392 66.8785 37.425C62.9884 39.6733 55.6937 40.4581 49.3052 40.6932" stroke="#975A03" stroke-width="1.5" stroke-linecap="round" stroke-linejoin="round"/>
</svg>
