<svg width="18" height="24" viewBox="0 0 18 24" fill="none" xmlns="http://www.w3.org/2000/svg">
<path d="M9 0C6.61388 0.00283581 4.32627 0.997121 2.63903 2.76472C0.951787 4.53233 0.00270689 6.9289 0 9.42867C0 17.4966 8.18182 23.5899 8.53057 23.8449C8.66814 23.9458 8.83203 24 9 24C9.16797 24 9.33186 23.9458 9.46943 23.8449C9.81818 23.5899 18 17.4966 18 9.42867C17.9973 6.9289 17.0482 4.53233 15.361 2.76472C13.6737 0.997121 11.3861 0.00283581 9 0ZM9 6.00006C9.64728 6.00006 10.28 6.20114 10.8182 6.57788C11.3564 6.95462 11.7759 7.4901 12.0236 8.1166C12.2713 8.74309 12.3361 9.43247 12.2098 10.0976C12.0836 10.7626 11.7719 11.3736 11.3142 11.8531C10.8565 12.3326 10.2733 12.6591 9.63848 12.7914C9.00363 12.9237 8.34559 12.8558 7.74758 12.5963C7.14957 12.3368 6.63844 11.8973 6.27883 11.3335C5.91922 10.7697 5.72727 10.1068 5.72727 9.42867C5.72727 8.51934 6.07208 7.64726 6.68583 7.00428C7.29959 6.36129 8.13202 6.00006 9 6.00006Z" fill="#B89478"/>
</svg>
