<svg width="16" height="16" viewBox="0 0 16 16" fill="none" xmlns="http://www.w3.org/2000/svg">
<path d="M13.4723 13.1709H11.1977V9.60674C11.1977 8.75682 11.1805 7.6631 10.0124 7.6631C8.82657 7.6631 8.6454 8.58795 8.6454 9.54402V13.1709H6.37084V5.84166H8.5558V6.84066H8.58524C8.89057 6.26466 9.63297 5.6567 10.742 5.6567C13.0467 5.6567 13.473 7.17355 13.473 9.1479L13.4723 13.1709ZM3.80191 4.83878C3.06975 4.83878 2.48159 4.24614 2.48159 3.51718C2.48159 2.78886 3.07039 2.19687 3.80191 2.19687C4.53151 2.19687 5.12287 2.78886 5.12287 3.51718C5.12287 4.24614 4.53087 4.83878 3.80191 4.83878ZM4.94239 13.1709H2.66143V5.84166H4.94239V13.1709ZM14.6102 0.081665H1.51967C0.89311 0.081665 0.38623 0.577025 0.38623 1.18823V14.3351C0.38623 14.9469 0.89311 15.4417 1.51967 15.4417H14.6083C15.2342 15.4417 15.7462 14.9469 15.7462 14.3351V1.18823C15.7462 0.577025 15.2342 0.081665 14.6083 0.081665H14.6102Z" fill="white"/>
</svg>
