<svg width="93" height="88" viewBox="0 0 93 88" fill="none" xmlns="http://www.w3.org/2000/svg">
<path d="M0.455078 86.1668H93.0005M42.8717 47.6062L38.8768 43.6113C35.2632 39.9967 33.2327 35.0952 33.2316 29.984V27.2963C35.6802 26.1549 40.3653 24.4737 46.7278 24.4737C53.0903 24.4737 57.7754 26.1549 60.224 27.2963V29.984C60.2251 35.097 62.2571 40.0003 65.8731 43.6152L69.8641 47.6062M62.152 74.5986H25.5195V70.7426C25.5195 67.6745 26.7382 64.7321 28.9077 62.5626C31.0772 60.3932 34.0196 59.1744 37.0876 59.1744C38.9077 59.1744 51.4052 60.4662 64.08 61.8273C78.2318 63.3505 91.0725 45.6782 91.0725 45.6782M17.8073 68.4289C17.8073 68.4289 13.9513 74.5986 9.13121 74.5986C7.3415 74.5986 5.6251 73.8877 4.35958 72.6221C3.09407 71.3566 2.38311 69.6402 2.38311 67.8505C2.38311 64.1256 5.40626 61.1178 9.13121 61.1178C13.9513 61.1178 17.8073 67.2721 17.8073 67.2721V68.4289ZM46.1571 16.7577C46.1571 16.7577 39.9874 12.9017 39.9874 8.0816C39.9874 4.35665 43.0105 1.3335 46.7355 1.3335C50.4643 1.3335 53.4682 4.35665 53.4682 8.0816C53.4682 12.9017 47.3139 16.7577 47.3139 16.7577H46.1571Z" stroke="#B89478" stroke-width="2.5"/>
</svg>
