<svg width="16" height="17" viewBox="0 0 16 17" fill="none" xmlns="http://www.w3.org/2000/svg">
<path d="M8.00009 11.1158C9.4932 11.1158 10.7036 9.94483 10.7036 8.50039C10.7036 7.05595 9.4932 5.885 8.00009 5.885C6.50698 5.885 5.29657 7.05595 5.29657 8.50039C5.29657 9.94483 6.50698 11.1158 8.00009 11.1158Z" fill="#B89478" fill-opacity="0.5"/>
<path d="M6.62372 6.24833C5.95629 5.03136 5.29646 3.5839 5.29646 2.61539C5.29646 1.92175 5.58129 1.25651 6.0883 0.76603C6.59531 0.275549 7.28296 0 7.99998 0C8.717 0 9.40464 0.275549 9.91165 0.76603C10.4187 1.25651 10.7035 1.92175 10.7035 2.61539C10.7035 3.5839 10.0437 5.03136 9.37624 6.24833" fill="#B89478" fill-opacity="0.5"/>
<path d="M5.29652 8.52678C3.87295 8.47775 2.24746 8.30693 1.38065 7.82226C1.06857 7.65288 0.794366 7.42524 0.573922 7.15255C0.353479 6.87987 0.191186 6.56756 0.0964555 6.23374C0.00172467 5.89991 -0.0235598 5.55122 0.0220684 5.20787C0.0676966 4.86452 0.18333 4.53336 0.362262 4.23357C0.541195 3.93378 0.779867 3.67134 1.06444 3.46146C1.34901 3.25159 1.67382 3.09845 2.02004 3.01093C2.36625 2.92342 2.72698 2.90326 3.08131 2.95163C3.43563 3.00001 3.77651 3.11595 4.08417 3.29274C4.95098 3.77658 5.91749 5.05322 6.67278 6.22115" fill="#B89478" fill-opacity="0.5"/>
<path d="M6.67278 10.7786C5.91749 11.9465 4.95098 13.2232 4.08417 13.707C3.77651 13.8838 3.43563 13.9997 3.08131 14.0481C2.72698 14.0965 2.36625 14.0763 2.02004 13.9888C1.67382 13.9013 1.34901 13.7481 1.06444 13.5383C0.779867 13.3284 0.541195 13.066 0.362262 12.7662C0.18333 12.4664 0.0676966 12.1352 0.0220684 11.7919C-0.0235598 11.4485 0.00172467 11.0998 0.0964555 10.766C0.191186 10.4322 0.353479 10.1199 0.573922 9.84718C0.794366 9.5745 1.06857 9.34686 1.38065 9.17747C2.24746 8.69281 3.87295 8.52363 5.29652 8.47295" fill="#B89478" fill-opacity="0.5"/>
<path d="M9.37635 10.7517C10.0438 11.9686 10.7036 13.4161 10.7036 14.3846C10.7036 15.0783 10.4188 15.7435 9.91177 16.234C9.40476 16.7245 8.71711 17 8.00009 17C7.28307 17 6.59542 16.7245 6.08842 16.234C5.58141 15.7435 5.29657 15.0783 5.29657 14.3846C5.29657 13.4161 5.9564 11.9686 6.62383 10.7517" fill="#B89478" fill-opacity="0.5"/>
<path d="M10.7035 8.47295C12.127 8.52199 13.7525 8.69281 14.6194 9.17747C14.9314 9.34686 15.2056 9.5745 15.4261 9.84718C15.6465 10.1199 15.8088 10.4322 15.9035 10.766C15.9983 11.0998 16.0236 11.4485 15.9779 11.7919C15.9323 12.1352 15.8167 12.4664 15.6377 12.7662C15.4588 13.066 15.2201 13.3284 14.9356 13.5383C14.651 13.7481 14.3262 13.9013 13.98 13.9888C13.6337 14.0763 13.273 14.0965 12.9187 14.0481C12.5644 13.9997 12.2235 13.8838 11.9158 13.707C11.049 13.2232 10.0825 11.9465 9.32722 10.7786" fill="#B89478" fill-opacity="0.5"/>
<path d="M9.32722 6.22115C10.0825 5.05322 11.049 3.77658 11.9158 3.29274C12.2235 3.11595 12.5644 3.00001 12.9187 2.95163C13.273 2.90326 13.6337 2.92342 13.98 3.01093C14.3262 3.09845 14.651 3.25159 14.9356 3.46146C15.2201 3.67134 15.4588 3.93378 15.6377 4.23357C15.8167 4.53336 15.9323 4.86452 15.9779 5.20787C16.0236 5.55122 15.9983 5.89991 15.9035 6.23374C15.8088 6.56756 15.6465 6.87987 15.4261 7.15255C15.2056 7.42524 14.9314 7.65288 14.6194 7.82226C13.7525 8.30693 12.127 8.47611 10.7035 8.52678" fill="#B89478" fill-opacity="0.5"/>
</svg>
