<svg width="23" height="23" viewBox="0 0 23 23" fill="none" xmlns="http://www.w3.org/2000/svg">
<path d="M19.595 19.5998H16.1891V14.2628C16.1891 12.9901 16.1633 11.3524 14.4142 11.3524C12.6385 11.3524 12.3672 12.7373 12.3672 14.1689V19.5998H8.96133V8.625H12.2331V10.1209H12.2772C12.7343 9.25839 13.846 8.34804 15.5067 8.34804C18.9578 8.34804 19.596 10.6194 19.596 13.5758L19.595 19.5998ZM5.11462 7.12329C4.01829 7.12329 3.13758 6.23588 3.13758 5.14433C3.13758 4.05375 4.01925 3.16729 5.11462 3.16729C6.20712 3.16729 7.09262 4.05375 7.09262 5.14433C7.09262 6.23588 6.20616 7.12329 5.11462 7.12329ZM6.82237 19.5998H3.40687V8.625H6.82237V19.5998ZM21.2989 0H1.69721C0.758999 0 0 0.74175 0 1.65696V21.3431C0 22.2591 0.758999 23 1.69721 23H21.2961C22.2333 23 23 22.2591 23 21.3431V1.65696C23 0.74175 22.2333 0 21.2961 0H21.2989Z" fill="#191E22"/>
</svg>
