<svg width="19" height="19" viewBox="0 0 19 19" fill="none" xmlns="http://www.w3.org/2000/svg">
<path d="M9.50001 6.65C7.92548 6.65 6.64999 7.92594 6.64999 9.5C6.64999 11.0744 7.92596 12.35 9.50001 12.35C11.0744 12.35 12.35 11.0741 12.35 9.5C12.35 7.92556 11.0741 6.65 9.50001 6.65ZM9.50001 4.75C12.1224 4.75 14.25 6.87524 14.25 9.5C14.25 12.1225 12.1248 14.25 9.50001 14.25C6.87755 14.25 4.75 12.1248 4.75 9.5C4.75 6.87755 6.87524 4.75 9.50001 4.75ZM15.675 4.51169C15.675 5.1673 15.1422 5.69921 14.4875 5.69921C13.8319 5.69921 13.3 5.16648 13.3 4.51169C13.3 3.8569 13.8327 3.325 14.4875 3.325C15.1414 3.32417 15.675 3.8569 15.675 4.51169ZM9.50001 1.9C7.14924 1.9 6.76608 1.90622 5.67272 1.95491C4.92781 1.98988 4.42847 2.09007 3.96452 2.27019C3.55222 2.43009 3.2548 2.62103 2.93791 2.93792C2.6198 3.25603 2.4292 3.55265 2.26995 3.96514C2.08941 4.43015 1.98925 4.9287 1.95491 5.67259C1.90575 6.72144 1.9 7.088 1.9 9.5C1.9 11.8508 1.90622 12.2339 1.9549 13.3272C1.98989 14.0718 2.09021 14.5719 2.26989 15.0347C2.43021 15.4476 2.62154 15.7457 2.9369 16.0611C3.25626 16.38 3.55377 16.5712 3.96234 16.7289C4.43195 16.9105 4.93097 17.0108 5.67258 17.0451C6.72143 17.0942 7.08799 17.1 9.50001 17.1C11.8508 17.1 12.2339 17.0937 13.3272 17.0451C14.0702 17.0102 14.5706 16.9096 15.0347 16.7301C15.4464 16.5702 15.7455 16.3782 16.0611 16.0631C16.3805 15.7432 16.5713 15.4464 16.7292 15.0369C16.9103 14.569 17.0108 14.0693 17.0451 13.3275C17.0942 12.2786 17.1 11.912 17.1 9.5C17.1 7.14924 17.0937 6.7661 17.0451 5.6728C17.0101 4.92961 16.9095 4.42842 16.7298 3.96452C16.5703 3.55336 16.3787 3.25503 16.062 2.93792C15.7434 2.61929 15.4476 2.42908 15.0348 2.26995C14.5702 2.08956 14.0708 1.98926 13.3274 1.95492C12.2786 1.90575 11.912 1.9 9.50001 1.9ZM9.50001 0C12.0808 0 12.403 0.00949994 13.4164 0.0569999C14.4273 0.103711 15.1169 0.263625 15.7225 0.49875C16.3486 0.740212 16.8775 1.06637 17.4055 1.59441C17.9328 2.12246 18.259 2.65287 18.5013 3.2775C18.7355 3.88234 18.8955 4.57266 18.943 5.58362C18.9881 6.59696 19 6.91916 19 9.5C19 12.0809 18.9905 12.403 18.943 13.4164C18.8963 14.4274 18.7355 15.1169 18.5013 15.7225C18.2598 16.3487 17.9328 16.8775 17.4055 17.4056C16.8775 17.9329 16.3463 18.259 15.7225 18.5013C15.1169 18.7356 14.4273 18.8955 13.4164 18.943C12.403 18.9881 12.0808 19 9.50001 19C6.91916 19 6.59695 18.9905 5.58362 18.943C4.57266 18.8963 3.88391 18.7356 3.2775 18.5013C2.65207 18.2598 2.12245 17.9329 1.59441 17.4056C1.06637 16.8775 0.740999 16.3464 0.49875 15.7225C0.263625 15.1169 0.1045 14.4274 0.0570001 13.4164C0.0118752 12.403 0 12.0809 0 9.5C0 6.91916 0.00950016 6.59696 0.0570001 5.58362C0.103702 4.57187 0.263625 3.88312 0.49875 3.2775C0.740201 2.65209 1.06637 2.12246 1.59441 1.59441C2.12245 1.06637 2.65287 0.741 3.2775 0.49875C3.88312 0.263625 4.57187 0.1045 5.58362 0.0569999C6.59695 0.0118749 6.91916 0 9.50001 0Z" fill="white"/>
</svg>
