<svg width="31" height="31" viewBox="0 0 31 31" fill="none" xmlns="http://www.w3.org/2000/svg">
<path d="M15.2332 11.4315C13.1283 11.4315 11.4232 13.1372 11.4232 15.2415C11.4232 17.3463 13.129 19.0515 15.2332 19.0515C17.338 19.0515 19.0432 17.3458 19.0432 15.2415C19.0432 13.1367 17.3375 11.4315 15.2332 11.4315ZM15.2332 8.8915C18.7389 8.8915 21.5832 11.7326 21.5832 15.2415C21.5832 18.7473 18.7421 21.5915 15.2332 21.5915C11.7274 21.5915 8.8832 18.7504 8.8832 15.2415C8.8832 11.7357 11.7243 8.8915 15.2332 8.8915ZM23.4882 8.57292C23.4882 9.44936 22.776 10.1604 21.9007 10.1604C21.0243 10.1604 20.3132 9.44827 20.3132 8.57292C20.3132 7.69758 21.0253 6.9865 21.9007 6.9865C22.7749 6.9854 23.4882 7.69758 23.4882 8.57292ZM15.2332 5.0815C12.0906 5.0815 11.5784 5.08982 10.1167 5.15491C9.12091 5.20166 8.45337 5.33559 7.83314 5.57638C7.28196 5.79015 6.88436 6.04541 6.46073 6.46904C6.03547 6.8943 5.78067 7.29083 5.56777 7.84227C5.32642 8.46392 5.19252 9.1304 5.14661 10.1249C5.08089 11.527 5.0732 12.017 5.0732 15.2415C5.0732 18.3841 5.08152 18.8963 5.1466 20.3578C5.19337 21.3533 5.32748 22.0218 5.56769 22.6405C5.78202 23.1925 6.03779 23.591 6.45938 24.0126C6.88632 24.439 7.28403 24.6946 7.83023 24.9054C8.45802 25.1481 9.12514 25.2822 10.1165 25.3281C11.5187 25.3938 12.0087 25.4015 15.2332 25.4015C18.3758 25.4015 18.888 25.3931 20.3495 25.3281C21.3428 25.2815 22.0119 25.147 22.6322 24.907C23.1827 24.6932 23.5825 24.4366 24.0044 24.0153C24.4313 23.5877 24.6865 23.1909 24.8975 22.6434C25.1396 22.018 25.274 21.3499 25.3198 20.3582C25.3855 18.956 25.3932 18.4659 25.3932 15.2415C25.3932 12.0989 25.3848 11.5867 25.3198 10.1251C25.2731 9.13161 25.1386 8.4616 24.8983 7.84144C24.6851 7.29179 24.4289 6.89297 24.0056 6.46904C23.5797 6.04308 23.1842 5.78881 22.6324 5.57607C22.0112 5.33492 21.3437 5.20083 20.3498 5.15492C18.9477 5.08919 18.4576 5.0815 15.2332 5.0815ZM15.2332 2.5415C18.6833 2.5415 19.1141 2.5542 20.4688 2.6177C21.8202 2.68015 22.7421 2.89393 23.5517 3.20825C24.3888 3.53105 25.0958 3.96708 25.8017 4.67298C26.5065 5.3789 26.9426 6.08798 27.2665 6.923C27.5797 7.73157 27.7935 8.65443 27.857 10.0059C27.9174 11.3606 27.9332 11.7913 27.9332 15.2415C27.9332 18.6917 27.9205 19.1224 27.857 20.4771C27.7945 21.8286 27.5797 22.7504 27.2665 23.56C26.9436 24.3972 26.5065 25.1041 25.8017 25.8101C25.0958 26.5149 24.3856 26.9509 23.5517 27.2748C22.7421 27.5881 21.8202 27.8018 20.4688 27.8653C19.1141 27.9256 18.6833 27.9415 15.2332 27.9415C11.783 27.9415 11.3523 27.9288 9.99763 27.8653C8.64613 27.8028 7.72538 27.5881 6.9147 27.2748C6.07861 26.9519 5.37059 26.5149 4.66468 25.8101C3.95878 25.1041 3.5238 24.394 3.19995 23.56C2.88563 22.7504 2.6729 21.8286 2.6094 20.4771C2.54908 19.1224 2.5332 18.6917 2.5332 15.2415C2.5332 11.7913 2.5459 11.3606 2.6094 10.0059C2.67184 8.65338 2.88563 7.73263 3.19995 6.923C3.52274 6.08692 3.95878 5.3789 4.66468 4.67298C5.37059 3.96708 6.07968 3.5321 6.9147 3.20825C7.72433 2.89393 8.64508 2.6812 9.99763 2.6177C11.3523 2.55738 11.783 2.5415 15.2332 2.5415Z" fill="#191E22"/>
</svg>
