<svg width="57" height="67" viewBox="0 0 57 67" fill="none" xmlns="http://www.w3.org/2000/svg">
<path d="M43.5738 66.464C52.3638 32.476 56.7588 14.2124 56.7588 11.673C56.7588 9.13371 55.6845 6.69204 53.5358 4.34804C51.1918 2.00403 48.3595 0.832031 45.0388 0.832031C41.7182 0.832031 38.8858 2.00403 36.5418 4.34804C34.1978 6.69204 33.0258 9.52437 33.0258 12.845C33.0258 15.9704 34.2955 18.705 36.8348 21.049C39.1788 23.393 41.9135 24.565 45.0388 24.565H45.9178L39.7648 66.464H43.5738ZM11.3438 66.464C20.1338 32.476 24.5288 14.2124 24.5288 11.673C24.5288 9.13371 23.4545 6.69204 21.3058 4.34804C18.9618 2.00403 16.1295 0.832031 12.8088 0.832031C9.48817 0.832031 6.65583 2.00403 4.31184 4.34804C1.96784 6.69204 0.795837 9.52437 0.795837 12.845C0.795837 15.9704 2.0655 18.705 4.60483 21.049C6.94883 23.393 9.6835 24.565 12.8088 24.565H13.6878L7.53484 66.464H11.3438Z" fill="#191E22"/>
</svg>
