<svg width="87" height="83" viewBox="0 0 87 83" fill="none" xmlns="http://www.w3.org/2000/svg">
<path d="M0.0361328 81.1676H86.8589M39.8299 44.9915L36.082 41.2436C32.6919 37.8525 30.7869 33.254 30.7859 28.459V25.9375C33.083 24.8667 37.4784 23.2894 43.4475 23.2894C49.4166 23.2894 53.812 24.8667 56.1092 25.9375V28.459C56.1102 33.2558 58.0166 37.8558 61.409 41.2472L65.1532 44.9915M57.918 70.3148H23.5506V66.6971C23.5506 63.8188 24.6941 61.0583 26.7294 59.023C28.7647 56.9877 31.5251 55.8443 34.4035 55.8443C36.111 55.8443 47.8357 57.0562 59.7268 58.3332C73.0034 59.7622 85.0501 43.1826 85.0501 43.1826M16.3154 64.5266C16.3154 64.5266 12.6978 70.3148 8.17577 70.3148C6.49673 70.3148 4.88646 69.6478 3.6992 68.4605C2.51194 67.2732 1.84494 65.663 1.84494 63.9839C1.84494 60.4893 4.68115 57.6676 8.17577 57.6676C12.6978 57.6676 16.3154 63.4413 16.3154 63.4413V64.5266ZM42.9121 16.0505C42.9121 16.0505 37.1239 12.4329 37.1239 7.9109C37.1239 4.41629 39.9601 1.58008 43.4547 1.58008C46.953 1.58008 49.7711 4.41629 49.7711 7.9109C49.7711 12.4329 43.9974 16.0505 43.9974 16.0505H42.9121Z" stroke="#B89478" stroke-width="2"/>
</svg>
