<svg width="22" height="24" viewBox="0 0 22 24" fill="none" xmlns="http://www.w3.org/2000/svg">
<path d="M20.1667 1.84615H17.4167V0.923077C17.4167 0.678262 17.3201 0.443473 17.1482 0.270363C16.9763 0.0972524 16.7431 0 16.5 0C16.2569 0 16.0237 0.0972524 15.8518 0.270363C15.6799 0.443473 15.5833 0.678262 15.5833 0.923077V1.84615H6.41667V0.923077C6.41667 0.678262 6.32009 0.443473 6.14818 0.270363C5.97627 0.0972524 5.74312 0 5.5 0C5.25689 0 5.02373 0.0972524 4.85182 0.270363C4.67991 0.443473 4.58333 0.678262 4.58333 0.923077V1.84615H1.83333C1.3471 1.84615 0.880787 2.04066 0.536971 2.38688C0.193154 2.7331 0 3.20268 0 3.69231V22.1538C0 22.6435 0.193154 23.1131 0.536971 23.4593C0.880787 23.8055 1.3471 24 1.83333 24H20.1667C20.6529 24 21.1192 23.8055 21.463 23.4593C21.8068 23.1131 22 22.6435 22 22.1538V3.69231C22 3.20268 21.8068 2.7331 21.463 2.38688C21.1192 2.04066 20.6529 1.84615 20.1667 1.84615ZM5.95833 19.3846C5.68638 19.3846 5.42054 19.3034 5.19442 19.1513C4.96831 18.9991 4.79207 18.7829 4.688 18.5299C4.58393 18.2769 4.5567 17.9985 4.60975 17.7299C4.66281 17.4613 4.79376 17.2146 4.98606 17.0209C5.17836 16.8273 5.42336 16.6954 5.69008 16.642C5.95681 16.5886 6.23327 16.616 6.48452 16.7208C6.73577 16.8256 6.95052 17.003 7.1016 17.2307C7.25269 17.4584 7.33333 17.7261 7.33333 18C7.33333 18.3672 7.18847 18.7194 6.93061 18.9791C6.67274 19.2387 6.32301 19.3846 5.95833 19.3846ZM11 19.3846C10.7281 19.3846 10.4622 19.3034 10.2361 19.1513C10.01 18.9991 9.83374 18.7829 9.72967 18.5299C9.6256 18.2769 9.59837 17.9985 9.65142 17.7299C9.70448 17.4613 9.83543 17.2146 10.0277 17.0209C10.22 16.8273 10.465 16.6954 10.7318 16.642C10.9985 16.5886 11.2749 16.616 11.5262 16.7208C11.7774 16.8256 11.9922 17.003 12.1433 17.2307C12.2944 17.4584 12.375 17.7261 12.375 18C12.375 18.3672 12.2301 18.7194 11.9723 18.9791C11.7144 19.2387 11.3647 19.3846 11 19.3846ZM11 14.7692C10.7281 14.7692 10.4622 14.688 10.2361 14.5359C10.01 14.3837 9.83374 14.1675 9.72967 13.9145C9.6256 13.6615 9.59837 13.3831 9.65142 13.1145C9.70448 12.8459 9.83543 12.5992 10.0277 12.4055C10.22 12.2119 10.465 12.08 10.7318 12.0266C10.9985 11.9732 11.2749 12.0006 11.5262 12.1054C11.7774 12.2102 11.9922 12.3877 12.1433 12.6154C12.2944 12.8431 12.375 13.1108 12.375 13.3846C12.375 13.7518 12.2301 14.104 11.9723 14.3637C11.7144 14.6234 11.3647 14.7692 11 14.7692ZM16.0417 19.3846C15.7697 19.3846 15.5039 19.3034 15.2778 19.1513C15.0516 18.9991 14.8754 18.7829 14.7713 18.5299C14.6673 18.2769 14.64 17.9985 14.6931 17.7299C14.7461 17.4613 14.8771 17.2146 15.0694 17.0209C15.2617 16.8273 15.5067 16.6954 15.7734 16.642C16.0401 16.5886 16.3166 16.616 16.5679 16.7208C16.8191 16.8256 17.0338 17.003 17.1849 17.2307C17.336 17.4584 17.4167 17.7261 17.4167 18C17.4167 18.3672 17.2718 18.7194 17.0139 18.9791C16.7561 19.2387 16.4063 19.3846 16.0417 19.3846ZM16.0417 14.7692C15.7697 14.7692 15.5039 14.688 15.2778 14.5359C15.0516 14.3837 14.8754 14.1675 14.7713 13.9145C14.6673 13.6615 14.64 13.3831 14.6931 13.1145C14.7461 12.8459 14.8771 12.5992 15.0694 12.4055C15.2617 12.2119 15.5067 12.08 15.7734 12.0266C16.0401 11.9732 16.3166 12.0006 16.5679 12.1054C16.8191 12.2102 17.0338 12.3877 17.1849 12.6154C17.336 12.8431 17.4167 13.1108 17.4167 13.3846C17.4167 13.7518 17.2718 14.104 17.0139 14.3637C16.7561 14.6234 16.4063 14.7692 16.0417 14.7692ZM20.1667 7.38462H1.83333V3.69231H4.58333V4.61538C4.58333 4.8602 4.67991 5.09499 4.85182 5.2681C5.02373 5.44121 5.25689 5.53846 5.5 5.53846C5.74312 5.53846 5.97627 5.44121 6.14818 5.2681C6.32009 5.09499 6.41667 4.8602 6.41667 4.61538V3.69231H15.5833V4.61538C15.5833 4.8602 15.6799 5.09499 15.8518 5.2681C16.0237 5.44121 16.2569 5.53846 16.5 5.53846C16.7431 5.53846 16.9763 5.44121 17.1482 5.2681C17.3201 5.09499 17.4167 4.8602 17.4167 4.61538V3.69231H20.1667V7.38462Z" fill="#B89478"/>
</svg>
