<svg width="20" height="21" viewBox="0 0 20 21" fill="none" xmlns="http://www.w3.org/2000/svg">
<path d="M9.91375 7.57936C8.27583 7.57936 6.94899 8.90667 6.94899 10.5441C6.94899 12.1819 8.27632 13.5088 9.91375 13.5088C11.5516 13.5088 12.8785 12.1815 12.8785 10.5441C12.8785 8.90628 11.5512 7.57936 9.91375 7.57936ZM9.91375 5.60286C12.6417 5.60286 14.855 7.81367 14.855 10.5441C14.855 13.2722 12.6442 15.4853 9.91375 15.4853C7.1857 15.4853 4.97249 13.2745 4.97249 10.5441C4.97249 7.81607 7.1833 5.60286 9.91375 5.60286ZM16.3374 5.35496C16.3374 6.03696 15.7832 6.59029 15.1021 6.59029C14.4201 6.59029 13.8667 6.03611 13.8667 5.35496C13.8667 4.67381 14.4209 4.12049 15.1021 4.12049C15.7823 4.11963 16.3374 4.67381 16.3374 5.35496ZM9.91375 2.63812C7.46833 2.63812 7.06975 2.64459 5.93237 2.69524C5.15746 2.73162 4.63802 2.83584 4.15539 3.02321C3.72649 3.18955 3.4171 3.38818 3.08745 3.71783C2.75653 4.04874 2.55826 4.3573 2.39259 4.7864C2.20478 5.27014 2.10059 5.78876 2.06487 6.5626C2.01373 7.65367 2.00775 8.03499 2.00775 10.5441C2.00775 12.9895 2.01422 13.3881 2.06486 14.5254C2.10125 15.2999 2.20561 15.8202 2.39253 16.3016C2.55931 16.7311 2.75834 17.0412 3.0864 17.3693C3.41862 17.7011 3.7281 17.9 4.15312 18.0641C4.64163 18.2529 5.16075 18.3573 5.93222 18.393C7.0233 18.4441 7.40462 18.4501 9.91375 18.4501C12.3592 18.4501 12.7577 18.4436 13.895 18.393C14.6679 18.3567 15.1885 18.252 15.6713 18.0653C16.0996 17.8989 16.4107 17.6992 16.739 17.3714C17.0712 17.0387 17.2698 16.7299 17.434 16.3039C17.6224 15.8172 17.7269 15.2974 17.7626 14.5257C17.8137 13.4345 17.8197 13.0532 17.8197 10.5441C17.8197 8.0987 17.8132 7.70013 17.7626 6.56282C17.7262 5.7897 17.6216 5.26833 17.4346 4.78576C17.2687 4.35804 17.0694 4.0477 16.74 3.71783C16.4085 3.38637 16.1008 3.1885 15.6714 3.02296C15.188 2.83531 14.6686 2.73097 13.8952 2.69525C12.8042 2.6441 12.4228 2.63812 9.91375 2.63812ZM9.91375 0.661621C12.5984 0.661621 12.9336 0.671504 13.9878 0.720916C15.0394 0.769508 15.7568 0.93586 16.3868 1.18045C17.0381 1.43163 17.5883 1.77093 18.1376 2.32023C18.686 2.86954 19.0254 3.4213 19.2774 4.07108C19.5211 4.70026 19.6875 5.41839 19.7369 6.47005C19.7839 7.52418 19.7962 7.85936 19.7962 10.5441C19.7962 13.2289 19.7863 13.564 19.7369 14.6182C19.6883 15.6698 19.5211 16.3871 19.2774 17.0171C19.0262 17.6686 18.686 18.2186 18.1376 18.768C17.5883 19.3165 17.0357 19.6557 16.3868 19.9078C15.7568 20.1516 15.0394 20.3179 13.9878 20.3673C12.9336 20.4142 12.5984 20.4266 9.91375 20.4266C7.22899 20.4266 6.8938 20.4167 5.83968 20.3673C4.78801 20.3187 4.07153 20.1516 3.44071 19.9078C2.7901 19.6565 2.23915 19.3165 1.68986 18.768C1.14056 18.2186 0.802084 17.6661 0.55008 17.0171C0.305489 16.3871 0.139957 15.6698 0.0905451 14.6182C0.0436033 13.564 0.03125 13.2289 0.03125 10.5441C0.03125 7.85936 0.0411327 7.52418 0.0905451 6.47005C0.139127 5.41756 0.305489 4.70108 0.55008 4.07108C0.801253 3.42048 1.14056 2.86954 1.68986 2.32023C2.23915 1.77093 2.79093 1.43245 3.44071 1.18045C4.07071 0.93586 4.78719 0.770328 5.83968 0.720916C6.8938 0.673974 7.22899 0.661621 9.91375 0.661621Z" fill="#191E22"/>
</svg>
