<svg width="22" height="16" viewBox="0 0 22 16" fill="none" xmlns="http://www.w3.org/2000/svg">
<path d="M19.25 0H2.75C2.02089 0.000721921 1.32187 0.269135 0.806318 0.746344C0.290762 1.22355 0.000779932 1.87058 0 2.54545V13.4545C0.000779932 14.1294 0.290762 14.7764 0.806318 15.2537C1.32187 15.7309 2.02089 15.9993 2.75 16H19.25C19.9791 15.9993 20.6781 15.7309 21.1937 15.2537C21.7092 14.7764 21.9992 14.1294 22 13.4545V2.54545C21.9992 1.87058 21.7092 1.22355 21.1937 0.746344C20.6781 0.269135 19.9791 0.000721921 19.25 0ZM18.5537 4.21045L11.4822 9.30136C11.3443 9.40059 11.1747 9.45445 11 9.45445C10.8253 9.45445 10.6557 9.40059 10.5178 9.30136L3.44634 4.21045C3.36326 4.15238 3.29347 4.0796 3.24104 3.99634C3.18861 3.91309 3.15457 3.82102 3.14092 3.72548C3.12726 3.62995 3.13425 3.53285 3.16149 3.43984C3.18872 3.34683 3.23565 3.25975 3.29956 3.18367C3.36346 3.1076 3.44307 3.04403 3.53374 2.99668C3.62441 2.94932 3.72435 2.91912 3.82775 2.90782C3.93114 2.89653 4.03593 2.90436 4.13602 2.93088C4.23612 2.95739 4.32952 3.00206 4.4108 3.06227L11 7.80591L17.5892 3.06227C17.754 2.9471 17.9611 2.89659 18.1658 2.92166C18.3705 2.94673 18.5562 3.04536 18.683 3.19624C18.8097 3.34711 18.8672 3.5381 18.843 3.72789C18.8188 3.91769 18.7149 4.09104 18.5537 4.21045Z" fill="#191E22"/>
</svg>
