<svg width="17" height="14" viewBox="0 0 17 14" fill="none" xmlns="http://www.w3.org/2000/svg">
<path d="M8.70771 0C9.16171 0.00257264 10.2976 0.0138783 11.5045 0.0636424L11.9324 0.0828495C13.1475 0.142073 14.3617 0.243246 14.9638 0.416086C15.767 0.648368 16.3983 1.32614 16.6117 2.18528C16.9515 3.54956 16.994 6.21232 16.9992 6.85671L17 6.99024V6.99961C17 6.99961 17 7.00284 17 7.00906L16.9992 7.14259C16.994 7.78698 16.9515 10.4497 16.6117 11.814C16.3954 12.6763 15.764 13.3541 14.9638 13.5832C14.3617 13.756 13.1475 13.8572 11.9324 13.9164L11.5045 13.9356C10.2976 13.9854 9.16171 13.9967 8.70771 13.9993L8.50846 14H8.49962C8.49962 14 8.49664 14 8.49078 14L8.2917 13.9993C7.33082 13.9939 3.31321 13.9492 2.03542 13.5832C1.23222 13.3509 0.600909 12.6732 0.387507 11.814C0.0477721 10.4497 0.00530424 7.78698 0 7.14259V6.85671C0.00530424 6.21232 0.0477721 3.54956 0.387507 2.18528C0.603867 1.32295 1.23517 0.645191 2.03542 0.416086C3.31321 0.0500792 7.33082 0.00544281 8.2917 0H8.70771ZM6.79955 3.93697V10.0623L11.8998 6.99961L6.79955 3.93697Z" fill="#191E22"/>
</svg>
