<svg width="17" height="16" viewBox="0 0 17 16" fill="none" xmlns="http://www.w3.org/2000/svg">
<path d="M8.10157 5.6C6.77565 5.6 5.70156 6.67448 5.70156 8C5.70156 9.32584 6.77605 10.4 8.10157 10.4C9.42741 10.4 10.5016 9.32552 10.5016 8C10.5016 6.67416 9.42709 5.6 8.10157 5.6ZM8.10157 4C10.3099 4 12.1016 5.78968 12.1016 8C12.1016 10.2084 10.3119 12 8.10157 12C5.89318 12 4.10156 10.2103 4.10156 8C4.10156 5.79162 5.89124 4 8.10157 4ZM13.3016 3.79932C13.3016 4.35141 12.8529 4.79934 12.3016 4.79934C11.7495 4.79934 11.3016 4.35072 11.3016 3.79932C11.3016 3.24792 11.7501 2.8 12.3016 2.8C12.8522 2.7993 13.3016 3.24792 13.3016 3.79932ZM8.10157 1.6C6.12197 1.6 5.79932 1.60524 4.87859 1.64624C4.25129 1.67569 3.8308 1.76006 3.4401 1.91174C3.0929 2.04639 2.84245 2.20718 2.57559 2.47404C2.30771 2.74192 2.14721 2.9917 2.0131 3.33906C1.86106 3.73066 1.77672 4.15049 1.7478 4.77692C1.7064 5.66016 1.70156 5.96884 1.70156 8C1.70156 9.9796 1.7068 10.3022 1.74779 11.2229C1.77726 11.8499 1.86174 12.271 2.01305 12.6608C2.14806 13.0085 2.30918 13.2595 2.57474 13.5251C2.84368 13.7937 3.09421 13.9547 3.43827 14.0875C3.83373 14.2404 4.25396 14.3249 4.87847 14.3538C5.76172 14.3951 6.0704 14.4 8.10157 14.4C10.0812 14.4 10.4038 14.3947 11.3244 14.3538C11.9501 14.3244 12.3716 14.2397 12.7624 14.0885C13.1091 13.9538 13.3609 13.7922 13.6267 13.5268C13.8956 13.2574 14.0564 13.0075 14.1893 12.6626C14.3418 12.2686 14.4264 11.8478 14.4553 11.2231C14.4967 10.3398 14.5016 10.0311 14.5016 8C14.5016 6.02042 14.4963 5.69777 14.4553 4.7771C14.4259 4.15125 14.3412 3.72919 14.1898 3.33854C14.0555 2.9923 13.8941 2.74108 13.6275 2.47404C13.3592 2.20572 13.11 2.04554 12.7624 1.91154C12.3712 1.75963 11.9507 1.67517 11.3246 1.64625C10.4414 1.60484 10.1327 1.6 8.10157 1.6ZM8.10157 0C10.2748 0 10.5462 0.00799995 11.3996 0.048C12.2508 0.087336 12.8316 0.222 13.3416 0.42C13.8688 0.623336 14.3142 0.898 14.7588 1.34266C15.2028 1.78734 15.4776 2.234 15.6816 2.76C15.8788 3.26934 16.0136 3.85066 16.0536 4.702C16.0916 5.55534 16.1016 5.82666 16.1016 8C16.1016 10.1734 16.0936 10.4446 16.0536 11.298C16.0142 12.1494 15.8788 12.73 15.6816 13.24C15.4782 13.7674 15.2028 14.2126 14.7588 14.6574C14.3142 15.1014 13.8668 15.376 13.3416 15.58C12.8316 15.7774 12.2508 15.912 11.3996 15.952C10.5462 15.99 10.2748 16 8.10157 16C5.92822 16 5.65689 15.992 4.80356 15.952C3.95222 15.9126 3.37222 15.7774 2.86156 15.58C2.33489 15.3766 1.88889 15.1014 1.44423 14.6574C0.999562 14.2126 0.725562 13.7654 0.521562 13.24C0.323562 12.73 0.189563 12.1494 0.149563 11.298C0.111563 10.4446 0.101562 10.1734 0.101562 8C0.101562 5.82666 0.109563 5.55534 0.149563 4.702C0.188891 3.85 0.323562 3.27 0.521562 2.76C0.72489 2.23334 0.999562 1.78734 1.44423 1.34266C1.88889 0.898 2.33556 0.624 2.86156 0.42C3.37156 0.222 3.95156 0.088 4.80356 0.048C5.65689 0.00999995 5.92822 0 8.10157 0Z" fill="white"/>
</svg>
