<svg width="17" height="13" viewBox="0 0 17 13" fill="none" xmlns="http://www.w3.org/2000/svg">
<path d="M8.60174 0C9.02904 0.00238888 10.0981 0.012887 11.234 0.0590965L11.6368 0.0769317C12.7804 0.131925 13.9231 0.225872 14.4898 0.386366C15.2458 0.602056 15.84 1.23141 16.0408 2.02919C16.3606 3.29602 16.4006 5.76859 16.4055 6.36695L16.4063 6.49094V6.49963C16.4063 6.49963 16.4063 6.50264 16.4063 6.50841L16.4055 6.6324C16.4006 7.23076 16.3606 9.70334 16.0408 10.9702C15.8372 11.7709 15.243 12.4003 14.4898 12.613C13.9231 12.7735 12.7804 12.8674 11.6368 12.9224L11.234 12.9402C10.0981 12.9864 9.02904 12.9969 8.60174 12.9994L8.41421 13H8.40589C8.40589 13 8.40309 13 8.39757 13L8.2102 12.9994C7.30584 12.9943 3.52457 12.9528 2.32194 12.613C1.56598 12.3973 0.971811 11.7679 0.770962 10.9702C0.451212 9.70334 0.411242 7.23076 0.40625 6.6324V6.36695C0.411242 5.76859 0.451212 3.29602 0.770962 2.02919C0.974596 1.22846 1.56877 0.599106 2.32194 0.386366C3.52457 0.0465021 7.30584 0.00505403 8.2102 0H8.60174ZM6.80583 3.65576V9.34354L11.606 6.49963L6.80583 3.65576Z" fill="white"/>
</svg>
