<svg width="49" height="49" viewBox="0 0 49 49" fill="none" xmlns="http://www.w3.org/2000/svg">
<path d="M24.5 17.15C20.4394 17.15 17.15 20.4406 17.15 24.5C17.15 28.5604 20.4406 31.85 24.5 31.85C28.5604 31.85 31.85 28.5594 31.85 24.5C31.85 20.4396 28.5594 17.15 24.5 17.15ZM24.5 12.25C31.263 12.25 36.75 17.7309 36.75 24.5C36.75 31.2632 31.2691 36.75 24.5 36.75C17.7368 36.75 12.25 31.2691 12.25 24.5C12.25 17.7368 17.7309 12.25 24.5 12.25ZM40.425 11.6354C40.425 13.3262 39.051 14.698 37.3625 14.698C35.6718 14.698 34.3 13.3241 34.3 11.6354C34.3 9.94675 35.6737 8.575 37.3625 8.575C39.0488 8.57287 40.425 9.94675 40.425 11.6354ZM24.5 4.9C18.4375 4.9 17.4494 4.91605 14.6296 5.04161C12.7086 5.13179 11.4208 5.39017 10.2243 5.85469C9.16098 6.26708 8.39396 6.7595 7.57672 7.57675C6.75633 8.39713 6.26479 9.16209 5.85407 10.2259C5.38848 11.4251 5.13017 12.7109 5.04161 14.6293C4.91482 17.3342 4.9 18.2796 4.9 24.5C4.9 30.5625 4.91604 31.5506 5.04158 34.3701C5.13181 36.2904 5.39053 37.5801 5.85393 38.7737C6.26739 39.8385 6.76082 40.6073 7.57412 41.4207C8.39774 42.2431 9.16498 42.7363 10.2187 43.143C11.4298 43.6112 12.7167 43.8699 14.6293 43.9584C17.3342 44.0851 18.2796 44.1 24.5 44.1C30.5625 44.1 31.5506 44.0838 34.3701 43.9584C36.2862 43.8685 37.5769 43.609 38.7737 43.146C39.8355 42.7336 40.6068 42.2385 41.4207 41.4258C42.2444 40.6009 42.7366 39.8355 43.1438 38.7793C43.6107 37.5727 43.8699 36.284 43.9584 34.3708C44.0851 31.6658 44.1 30.7203 44.1 24.5C44.1 18.4375 44.0838 17.4494 43.9584 14.6299C43.8682 12.7132 43.6088 11.4207 43.1452 10.2243C42.7339 9.16393 42.2397 8.39456 41.4231 7.57675C40.6014 6.75502 39.8385 6.26448 38.774 5.85408C37.5757 5.38887 36.2879 5.1302 34.3706 5.04163C31.6658 4.91482 30.7203 4.9 24.5 4.9ZM24.5 0C31.1557 0 31.9867 0.0244999 34.6001 0.147C37.2072 0.267466 38.9856 0.679875 40.5475 1.28625C42.1623 1.90897 43.5262 2.75012 44.8879 4.11191C46.2477 5.47372 47.089 6.84162 47.7138 8.4525C48.3179 10.0123 48.7305 11.7927 48.853 14.3999C48.9694 17.0132 49 17.8442 49 24.5C49 31.1559 48.9755 31.9867 48.853 34.6001C48.7325 37.2074 48.3179 38.9856 47.7138 40.5475C47.091 42.1625 46.2477 43.5262 44.8879 44.8882C43.5262 46.2479 42.1562 47.089 40.5475 47.7138C38.9856 48.3182 37.2072 48.7305 34.6001 48.853C31.9867 48.9694 31.1557 49 24.5 49C17.8441 49 17.0132 48.9755 14.3999 48.853C11.7926 48.7325 10.0164 48.3182 8.45249 47.7138C6.83956 47.091 5.47369 46.2479 4.11191 44.8882C2.75012 43.5262 1.911 42.1564 1.28625 40.5475C0.679875 38.9856 0.2695 37.2074 0.147 34.6001C0.0306254 31.9867 0 31.1559 0 24.5C0 17.8442 0.0245004 17.0132 0.147 14.3999C0.267442 11.7906 0.679875 10.0144 1.28625 8.4525C1.90894 6.83959 2.75012 5.47372 4.11191 4.11191C5.47369 2.75012 6.84162 1.911 8.45249 1.28625C10.0144 0.679875 11.7906 0.2695 14.3999 0.147C17.0132 0.0306249 17.8441 0 24.5 0Z" fill="white"/>
</svg>
