<svg width="174" height="186" viewBox="0 0 174 186" fill="none" xmlns="http://www.w3.org/2000/svg">
<path d="M118.411 170.077C140.512 170.077 158.428 152.161 158.428 130.06C158.428 107.959 140.512 90.0433 118.411 90.0433C96.3103 90.0433 78.3942 107.959 78.3942 130.06C78.3942 152.161 96.3103 170.077 118.411 170.077Z" fill="#F2EFEB"/>
<path d="M98.0399 95.6024C88.1608 76.9822 78.3942 54.8354 78.3942 40.0167C78.3942 29.4036 82.6103 19.2252 90.1148 11.7206C97.6194 4.21603 107.798 0 118.411 0C129.024 0 139.202 4.21603 146.707 11.7206C154.212 19.2252 158.428 29.4036 158.428 40.0167C158.428 54.8354 148.661 76.9822 138.782 95.6024" fill="#F2EFEB"/>
<path d="M78.3977 130.464C57.3264 129.714 33.2663 127.1 20.436 119.684C15.8167 117.093 11.758 113.61 8.49504 109.437C5.23209 105.265 2.82989 100.487 1.42771 95.3792C0.0255282 90.2715 -0.348726 84.9363 0.326651 79.6829C1.00203 74.4295 2.71359 69.3625 5.3621 64.7756C8.01062 60.1887 11.5434 56.1732 15.7555 52.962C19.9677 49.7508 24.7754 47.4077 29.9 46.0687C35.0246 44.7296 40.364 44.4212 45.6086 45.1614C50.8533 45.9015 55.8988 47.6755 60.4527 50.3804C73.283 57.7835 87.589 77.3167 98.7687 95.1866" fill="#F2EFEB"/>
<path d="M98.7687 164.917C87.589 182.787 73.283 202.32 60.4527 209.724C55.8988 212.428 50.8533 214.202 45.6086 214.943C40.364 215.683 35.0246 215.374 29.9 214.035C24.7754 212.696 19.9677 210.353 15.7555 207.142C11.5434 203.931 8.01062 199.915 5.3621 195.328C2.71359 190.741 1.00203 185.674 0.326651 180.421C-0.348726 175.168 0.0255282 169.832 1.42771 164.725C2.82989 159.617 5.23209 154.839 8.49504 150.666C11.758 146.494 15.8167 143.011 20.436 140.42C33.2663 133.004 57.3264 130.415 78.3977 129.64" fill="#F2EFEB"/>
<path d="M138.782 164.506C148.661 183.126 158.428 205.273 158.428 220.092C158.428 230.705 154.212 240.883 146.707 248.388C139.202 255.892 129.024 260.108 118.411 260.108C107.798 260.108 97.6194 255.892 90.1148 248.388C82.6103 240.883 78.3942 230.705 78.3942 220.092C78.3942 205.273 88.1608 183.126 98.0399 164.506" fill="#F2EFEB"/>
<path d="M158.43 129.64C179.501 130.39 203.561 133.004 216.392 140.42C221.011 143.011 225.07 146.494 228.332 150.666C231.595 154.839 233.998 159.617 235.4 164.725C236.802 169.832 237.176 175.168 236.501 180.421C235.825 185.674 234.114 190.741 231.465 195.328C228.817 199.915 225.284 203.931 221.072 207.142C216.86 210.353 212.052 212.696 206.927 214.035C201.803 215.374 196.464 215.683 191.219 214.943C185.974 214.202 180.929 212.428 176.375 209.724C163.544 202.32 149.238 182.787 138.059 164.917" fill="#F2EFEB"/>
<path d="M138.059 95.1866C149.238 77.3167 163.544 57.7835 176.375 50.3804C180.929 47.6755 185.974 45.9015 191.219 45.1614C196.464 44.4212 201.803 44.7296 206.927 46.0687C212.052 47.4077 216.86 49.7508 221.072 52.962C225.284 56.1732 228.817 60.1887 231.465 64.7756C234.114 69.3625 235.825 74.4295 236.501 79.6829C237.176 84.9363 236.802 90.2715 235.4 95.3792C233.998 100.487 231.595 105.265 228.332 109.437C225.07 113.61 221.011 117.093 216.392 119.684C203.561 127.1 179.501 129.689 158.43 130.464" fill="#F2EFEB"/>
</svg>
