<svg width="35" height="24" viewBox="0 0 35 24" fill="none" xmlns="http://www.w3.org/2000/svg">
<path d="M0 24V9.77778C0 6.70707 0.831418 4.30976 2.49425 2.58586C4.15709 0.861952 6.57088 0 9.73563 0H13.4368V5.57576H10.3793C8.98467 5.57576 7.91188 5.95286 7.16092 6.70707C6.40996 7.46128 6.03448 8.53872 6.03448 9.9394V13.0909H10.9425V24H0ZM21.5632 24V9.77778C21.5632 6.70707 22.3946 4.30976 24.0575 2.58586C25.7203 0.861952 28.1341 0 31.2988 0H35V5.57576H31.9425C30.5479 5.57576 29.4751 5.95286 28.7241 6.70707C27.9732 7.46128 27.5977 8.53872 27.5977 9.9394V13.0909H32.5057V24H21.5632Z" fill="#191E22"/>
</svg>
